<svg xmlns="http://www.w3.org/2000/svg" fill="none" viewBox="0 0 24 24" id="Assured-Workload-Fill--Streamline-Rounded-Fill-Material" height="24" width="24">
  <desc>
    Assured Workload Fill Streamline Icon: https://streamlinehq.com
  </desc>
  <path fill="#000000" d="M5.3 17.2252v-6.975c0 -0.2125 0.07235 -0.39065 0.217 -0.5345 0.1445 -0.14365 0.32365 -0.2155 0.5375 -0.2155 0.21365 0 0.39135 0.07185 0.533 0.2155 0.14165 0.14385 0.2125 0.322 0.2125 0.5345v6.975c0 0.2125 -0.07235 0.3906 -0.217 0.53425 -0.1445 0.14385 -0.32365 0.21575 -0.5375 0.21575 -0.21365 0 -0.39135 -0.0719 -0.533 -0.21575 -0.14165 -0.14365 -0.2125 -0.32175 -0.2125 -0.53425Zm6.05 0v-6.975c0 -0.2125 0.07235 -0.39065 0.217 -0.5345 0.1445 -0.14365 0.32365 -0.2155 0.5375 -0.2155 0.21365 0 0.39135 0.07185 0.533 0.2155 0.14165 0.14385 0.2125 0.322 0.2125 0.5345v6.975c0 0.2125 -0.07235 0.3906 -0.217 0.53425 -0.1445 0.14385 -0.32365 0.21575 -0.5375 0.21575 -0.21365 0 -0.39135 -0.0719 -0.533 -0.21575 -0.14165 -0.14365 -0.2125 -0.32175 -0.2125 -0.53425Zm10 -9.225H2.575c-0.159665 0 -0.295415 -0.0559 -0.40725 -0.16775C2.055915 7.7206 2 7.58485 2 7.4252v-0.425c0 -0.1 0.029165 -0.19585 0.0875 -0.2875 0.058335 -0.09165 0.129165 -0.1625 0.2125 -0.2125L11.25 1.400195c0.23615 -0.133335 0.48615 -0.2 0.75 -0.2s0.51385 0.066665 0.75 0.2L21.675 6.4752c0.1 0.06665 0.17915 0.15 0.2375 0.25 0.05835 0.1 0.0875 0.2125 0.0875 0.3375v0.25575c0 0.19315 -0.06225 0.3551 -0.18675 0.48575 -0.12465 0.13065 -0.2791 0.196 -0.46325 0.196Zm-18.6 12.975c-0.2125 0 -0.390585 -0.07235 -0.53425 -0.217 -0.143835 -0.1445 -0.21575 -0.32365 -0.21575 -0.5375 0 -0.21365 0.071915 -0.39135 0.21575 -0.533 0.143665 -0.14165 0.32175 -0.2125 0.53425 -0.2125h11c0.2125 0 0.39065 0.07235 0.5345 0.217 0.14365 0.1445 0.2155 0.32365 0.2155 0.5375 0 0.21365 -0.07185 0.39135 -0.2155 0.533 -0.14385 0.14165 -0.322 0.2125 -0.5345 0.2125h-11Zm15.1955 -7.65c-0.21365 0 -0.39135 -0.0719 -0.533 -0.21575 -0.14165 -0.14365 -0.2125 -0.32175 -0.2125 -0.53425v-2.325c0 -0.2125 0.07235 -0.39065 0.217 -0.5345 0.1445 -0.14365 0.32365 -0.2155 0.5375 -0.2155 0.21365 0 0.39135 0.07185 0.533 0.2155 0.14165 0.14385 0.2125 0.322 0.2125 0.5345v2.325c0 0.2125 -0.07235 0.3906 -0.217 0.53425 -0.1445 0.14385 -0.32365 0.21575 -0.5375 0.21575ZM16 18.5502v-2.075c0 -0.136 0.0375 -0.26585 0.1125 -0.3895 0.075 -0.12365 0.17915 -0.21885 0.3125 -0.2855l3.25 -1.625c0.09515 -0.05 0.20235 -0.075 0.3215 -0.075 0.119 0 0.2285 0.025 0.3285 0.075l3.25 1.625c0.13335 0.06665 0.2375 0.16185 0.3125 0.2855 0.075 0.12365 0.1125 0.2535 0.1125 0.3895v2.075c0 1.3 -0.32915 2.39165 -0.9875 3.275 -0.65835 0.88335 -1.5625 1.56665 -2.7125 2.05 -0.06665 0.03335 -0.16665 0.05 -0.3 0.05l-0.3 -0.05c-1.15 -0.48335 -2.05415 -1.16665 -2.7125 -2.05 -0.65835 -0.88335 -0.9875 -1.975 -0.9875 -3.275Zm3.475 1.05 -1.125 -1.125c-0.1 -0.1 -0.21665 -0.15 -0.35 -0.15 -0.13335 0 -0.25 0.05 -0.35 0.15 -0.1 0.1 -0.15 0.21665 -0.15 0.35 0 0.13335 0.05 0.25 0.15 0.35l1.3 1.3c0.15 0.15 0.325 0.225 0.525 0.225s0.375 -0.075 0.525 -0.225l2.675 -2.675c0.1 -0.1 0.15 -0.21665 0.15 -0.35 0 -0.13335 -0.05 -0.25 -0.15 -0.35 -0.1 -0.1 -0.21665 -0.15 -0.35 -0.15 -0.13335 0 -0.25 0.05 -0.35 0.15l-2.5 2.5Z" stroke-width="0.5"></path>
</svg>