<svg xmlns="http://www.w3.org/2000/svg" fill="none" viewBox="0 0 24 24" id="New-Releases-Fill--Streamline-Rounded-Fill-Material" height="24" width="24">
  <desc>
    New Releases Fill Streamline Icon: https://streamlinehq.com
  </desc>
  <path fill="#000000" d="m10.9246 13.17495 -1.825 -1.9c-0.15 -0.16665 -0.3333 -0.25 -0.55 -0.25 -0.21665 0 -0.4083 0.075 -0.575 0.225 -0.16665 0.16665 -0.25 0.35835 -0.25 0.575 0 0.21665 0.08335 0.40835 0.25 0.575l2.425 2.4c0.15 0.15 0.325 0.225 0.525 0.225s0.375 -0.075 0.525 -0.225l4.575 -4.55c0.15 -0.15 0.225 -0.33335 0.225 -0.55 0 -0.21665 -0.0833 -0.4 -0.25 -0.55 -0.15 -0.13335 -0.32915 -0.19585 -0.5375 -0.1875 -0.2083 0.00835 -0.37915 0.07915 -0.5125 0.2125l-4.025 4Zm-2.625 8.725 -1.55 -2.65 -3.09999 -0.625c-0.183335 -0.03335 -0.3375 -0.13335 -0.4625 -0.3s-0.170835 -0.34165 -0.1375 -0.525l0.35 -3 -1.975 -2.3c-0.133335 -0.13335 -0.2 -0.3 -0.2 -0.5s0.066665 -0.36665 0.2 -0.5l1.975 -2.275 -0.35 -3c-0.033335 -0.18335 0.0125 -0.35835 0.1375 -0.525 0.125 -0.16665 0.279165 -0.26665 0.4625 -0.3l3.09999 -0.625005 1.55 -2.675c0.1 -0.166665 0.2417 -0.283335 0.425 -0.35 0.18335 -0.066665 0.3667 -0.058335 0.55 0.025l2.725 1.275 2.725 -1.275c0.18335 -0.083335 0.3667 -0.095835 0.55 -0.0375 0.18335 0.058335 0.325 0.170835 0.425 0.3375l1.575 2.7 3.075 0.625005c0.18335 0.03335 0.3375 0.13335 0.4625 0.3s0.17085 0.34165 0.1375 0.525l-0.35 3 1.975 2.275c0.13335 0.13335 0.2 0.3 0.2 0.5s-0.06665 0.36665 -0.2 0.5l-1.975 2.3 0.35 3c0.03335 0.18335 -0.0125 0.35835 -0.1375 0.525 -0.125 0.16665 -0.27915 0.26665 -0.4625 0.3l-3.075 0.625 -1.575 2.675c-0.1 0.16665 -0.24165 0.27915 -0.425 0.3375 -0.1833 0.05835 -0.36665 0.04585 -0.55 -0.0375l-2.725 -1.275 -2.725 1.275c-0.1833 0.08335 -0.36665 0.09165 -0.55 0.025 -0.1833 -0.06665 -0.325 -0.18335 -0.425 -0.35Z" stroke-width="0.5"></path>
</svg>