<svg xmlns="http://www.w3.org/2000/svg" fill="none" viewBox="0 0 24 24" id="Security-Fill--Streamline-Rounded-Fill-Material" height="24" width="24">
  <desc>
    Security Fill Streamline Icon: https://streamlinehq.com
  </desc>
  <path fill="#000000" d="M12 20.4502c1.76665 -0.58335 3.22915 -1.65415 4.3875 -3.2125s1.8375 -3.30415 2.0375 -5.2375H12V3.625195L5.5 6.0502v4.9c0 0.2 0.00415 0.37085 0.0125 0.5125 0.00835 0.14165 0.02915 0.32085 0.0625 0.5375H12v8.45Zm0 1.45c-0.08335 0 -0.1625 -0.00835 -0.2375 -0.025 -0.075 -0.01665 -0.15415 -0.04165 -0.2375 -0.075 -2.31665 -0.78335 -4.15 -2.1875 -5.5 -4.2125 -1.35 -2.025 -2.025 -4.24585 -2.025 -6.6625v-4.9c0 -0.31665 0.091665 -0.60415 0.275 -0.8625 0.183335 -0.25834 0.416665 -0.44584 0.7 -0.562505l6.5 -2.425c0.18335 -0.066665 0.35835 -0.1 0.525 -0.1 0.16665 0 0.34165 0.033335 0.525 0.1l6.5 2.425c0.28335 0.116665 0.51665 0.304165 0.7 0.562505 0.18335 0.25835 0.275 0.54585 0.275 0.8625v4.9c0 2.41665 -0.675 4.6375 -2.025 6.6625 -1.35 2.025 -3.18335 3.42915 -5.5 4.2125 -0.08335 0.03335 -0.1625 0.05835 -0.2375 0.075 -0.075 0.01665 -0.15415 0.025 -0.2375 0.025Z" stroke-width="0.5"></path>
</svg>